<svg width="200" height="200" viewBox="0 0 200 200" fill="none" xmlns="http://www.w3.org/2000/svg">
<g clip-path="url(#clip0_333_24747)">
<rect width="200" height="200" fill="#202124"/>
<path d="M167.734 54.8562L122.578 54.8562C97.6396 54.8561 77.4223 75.0675 77.4223 99.999L122.578 99.999C147.517 99.999 167.734 79.7877 167.734 54.8562Z" fill="#00EB77"/>
<path d="M122.578 99.9997L77.4221 99.9997C52.4833 99.9997 32.2661 120.211 32.2661 145.143L77.4221 145.143C102.361 145.143 122.578 124.931 122.578 99.9997Z" fill="#1682F9"/>
</g>
<defs>
<clipPath id="clip0_333_24747">
<path d="M0 50C0 22.3858 22.3858 0 50 0H150C177.614 0 200 22.3858 200 50V150C200 177.614 177.614 200 150 200H50C22.3858 200 0 177.614 0 150V50Z" fill="white"/>
</clipPath>
</defs>
</svg>
